<?xml version="1.0" encoding="UTF-8" standalone="no"?>
<!-- Created with Inkscape (http://www.inkscape.org/) -->

<svg
   xmlns:dc="http://purl.org/dc/elements/1.1/"
   xmlns:cc="http://creativecommons.org/ns#"
   xmlns:rdf="http://www.w3.org/1999/02/22-rdf-syntax-ns#"
   xmlns:svg="http://www.w3.org/2000/svg"
   xmlns="http://www.w3.org/2000/svg"
   xmlns:sodipodi="http://sodipodi.sourceforge.net/DTD/sodipodi-0.dtd"
   xmlns:inkscape="http://www.inkscape.org/namespaces/inkscape"
   id="svg4316"
   version="1.1"
   inkscape:version="0.91 r13725"
   xml:space="preserve"
   width="75.029999"
   height="70.883751"
   viewBox="0 0 75.029999 70.883751"
   sodipodi:docname="lr-favicon.svg"><metadata
     id="metadata4322"><rdf:RDF><cc:Work
         rdf:about=""><dc:format>image/svg+xml</dc:format><dc:type
           rdf:resource="http://purl.org/dc/dcmitype/StillImage" /><dc:title></dc:title></cc:Work></rdf:RDF></metadata><defs
     id="defs4320" /><sodipodi:namedview
     pagecolor="#ffffff"
     bordercolor="#666666"
     borderopacity="1"
     objecttolerance="10"
     gridtolerance="10"
     guidetolerance="10"
     inkscape:pageopacity="0"
     inkscape:pageshadow="2"
     inkscape:window-width="1920"
     inkscape:window-height="1136"
     id="namedview4318"
     showgrid="false"
     inkscape:zoom="5.9154292"
     inkscape:cx="-21.020892"
     inkscape:cy="7.5524476"
     inkscape:window-x="0"
     inkscape:window-y="27"
     inkscape:window-maximized="1"
     inkscape:current-layer="g4324"
     fit-margin-top="0"
     fit-margin-left="0"
     fit-margin-right="0"
     fit-margin-bottom="0" /><g
     id="g4324"
     inkscape:groupmode="layer"
     inkscape:label="ink_ext_XXXXXX"
     transform="matrix(1.25,0,0,-1.25,-120.97125,72.13375)"><path
       inkscape:connector-curvature="0"
       id="path4352"
       style="fill:#a7a5a6;fill-opacity:1;fill-rule:nonzero;stroke:none"
       d="m 107.691,43.5352 -2.73,4.7269 2.73,4.7219 5.457,0 2.727,-4.7219 -2.73,-4.7269 -5.454,0" /><path
       inkscape:connector-curvature="0"
       id="path4354"
       style="fill:#a7a5a6;fill-opacity:1;fill-rule:nonzero;stroke:none"
       d="m 99.5039,29.3551 -2.7269,4.7269 2.7269,4.727 5.4571,0 2.73,-4.727 -2.73,-4.7269 -5.4571,0" /><path
       inkscape:connector-curvature="0"
       id="path4356"
       style="fill:#a7a5a6;fill-opacity:1;fill-rule:nonzero;stroke:none"
       d="m 140.434,43.5352 -2.731,4.7269 2.731,4.7219 5.457,0 2.726,-4.7219 -2.726,-4.7269 -5.457,0" /><path
       inkscape:connector-curvature="0"
       id="path4358"
       style="fill:#a7a5a6;fill-opacity:1;fill-rule:nonzero;stroke:none"
       d="m 148.621,29.359 -2.73,4.723 2.73,4.727 5.453,0 2.727,-4.727 -2.727,-4.723 -5.453,0" /><path
       inkscape:connector-curvature="0"
       id="path4360"
       style="fill:#a7a5a6;fill-opacity:1;fill-rule:nonzero;stroke:none"
       d="m 115.875,1 -2.727,4.72695 2.727,4.72615 5.457,0 2.73,-4.72615 L 121.332,1 115.875,1" /><path
       inkscape:connector-curvature="0"
       id="path4362"
       style="fill:#a7a5a6;fill-opacity:1;fill-rule:nonzero;stroke:none"
       d="m 132.246,1 -2.726,4.72695 2.726,4.72615 5.457,0 2.731,-4.72615 L 137.703,1 132.246,1" /><path
       inkscape:connector-curvature="0"
       id="path4364"
       style="fill:#a7a5a6;fill-opacity:1;fill-rule:nonzero;stroke:none"
       d="m 124.062,34.082 -2.73,4.727 2.73,4.7262 5.458,0 2.726,-4.7262 -2.726,-4.727 -5.458,0" /><path
       inkscape:connector-curvature="0"
       id="path4366"
       style="fill:#a7a5a6;fill-opacity:1;fill-rule:nonzero;stroke:none"
       d="m 115.875,19.9059 -2.727,4.7269 2.727,4.7262 5.457,0 2.73,-4.7262 -2.73,-4.7269 -5.457,0" /><path
       inkscape:connector-curvature="0"
       id="path4368"
       style="fill:#a7a5a6;fill-opacity:1;fill-rule:nonzero;stroke:none"
       d="m 132.246,19.9059 -2.726,4.7269 2.726,4.7262 5.457,0 2.731,-4.7262 -2.731,-4.7269 -5.457,0" /><path
       inkscape:connector-curvature="0"
       id="path4370"
       style="fill:#66c430;fill-opacity:1;fill-rule:nonzero;stroke:none"
       d="m 107.691,34.082 -2.73,4.727 2.73,4.7262 5.457,0 2.727,-4.7262 -2.73,-4.727 -5.454,0" /><path
       inkscape:connector-curvature="0"
       id="path4372"
       style="fill:#66c430;fill-opacity:1;fill-rule:nonzero;stroke:none"
       d="m 124.062,43.5352 -2.73,4.7269 2.73,4.7219 5.458,0 2.726,-4.7219 -0.996,-1.7312 -1.73,-2.9957 -5.458,0" /><path
       inkscape:connector-curvature="0"
       id="path4374"
       style="fill:#66c430;fill-opacity:1;fill-rule:nonzero;stroke:none"
       d="m 107.691,15.1762 -2.73,4.7297 2.73,4.7269 -0.003,0 5.46,0 2.727,-4.7269 -2.73,-4.7297 -5.454,0" /><path
       inkscape:connector-curvature="0"
       id="path4376"
       style="fill:#66c430;fill-opacity:1;fill-rule:nonzero;stroke:none"
       d="m 140.434,34.082 -2.731,4.727 2.731,4.7262 5.457,0 2.726,-4.7262 -2.726,-4.727 -5.457,0" /><path
       inkscape:connector-curvature="0"
       id="path4378"
       style="fill:#66c430;fill-opacity:1;fill-rule:nonzero;stroke:none"
       d="m 124.062,5.72695 -2.73,4.72615 2.73,4.7231 5.458,0 2.726,-4.7231 -2.726,-4.72615 -5.458,0" /><path
       inkscape:connector-curvature="0"
       id="path4380"
       style="fill:#66c430;fill-opacity:1;fill-rule:nonzero;stroke:none"
       d="m 140.434,15.1762 -2.731,4.7297 2.731,4.7269 5.457,0 2.726,-4.7269 -2.726,-4.7297 -5.457,0" /><path
       inkscape:connector-curvature="0"
       id="path4382"
       style="fill:#a6d71c;fill-opacity:1;fill-rule:nonzero;stroke:none"
       d="m 115.875,48.2621 -2.727,4.7219 2.727,4.723 5.457,0 2.73,-4.723 -2.73,-4.7219 -5.457,0" /><path
       inkscape:connector-curvature="0"
       id="path4384"
       style="fill:#a6d71c;fill-opacity:1;fill-rule:nonzero;stroke:none"
       d="m 132.246,48.2621 -2.726,4.7219 2.726,4.723 5.457,0 2.731,-4.723 -2.731,-4.7219 -5.457,0" /><path
       inkscape:connector-curvature="0"
       id="path4386"
       style="fill:#a6d71c;fill-opacity:1;fill-rule:nonzero;stroke:none"
       d="m 99.5039,19.9059 -2.7269,4.7269 2.7269,4.7223 5.4571,0 2.727,-4.7223 -2.727,-4.7269 -5.4571,0" /><path
       inkscape:connector-curvature="0"
       id="path4388"
       style="fill:#a6d71c;fill-opacity:1;fill-rule:nonzero;stroke:none"
       d="m 107.691,5.72695 -2.73,4.72615 2.73,4.7231 5.457,0 2.727,-4.7231 -2.73,-4.72615 -5.454,0" /><path
       inkscape:connector-curvature="0"
       id="path4390"
       style="fill:#a6d71c;fill-opacity:1;fill-rule:nonzero;stroke:none"
       d="m 148.621,19.9059 -2.73,4.7269 2.73,4.7262 5.453,0 2.727,-4.7262 -2.727,-4.7269 -5.453,0" /><path
       inkscape:connector-curvature="0"
       id="path4392"
       style="fill:#a6d71c;fill-opacity:1;fill-rule:nonzero;stroke:none"
       d="m 140.434,5.72695 -2.731,4.72615 2.731,4.7231 5.457,0 2.726,-4.7231 -2.726,-4.72615 -5.457,0" /><path
       inkscape:connector-curvature="0"
       id="path4394"
       style="fill:#a6d71c;fill-opacity:1;fill-rule:nonzero;stroke:none"
       d="m 121.332,29.359 -5.457,0 -2.727,4.723 2.727,4.727 5.457,0 2.73,-4.727 -2.73,-4.723" /><path
       inkscape:connector-curvature="0"
       id="path4396"
       style="fill:#a6d71c;fill-opacity:1;fill-rule:nonzero;stroke:none"
       d="m 137.703,29.359 -5.457,0 -2.726,4.723 2.726,4.727 5.457,0 2.731,-4.727 -2.731,-4.723" /><path
       inkscape:connector-curvature="0"
       id="path4398"
       style="fill:#a6d71c;fill-opacity:1;fill-rule:nonzero;stroke:none"
       d="m 124.062,15.1762 -2.73,4.7297 2.73,4.7269 5.458,0 2.726,-4.7269 -2.726,-4.7297 -5.458,0" /><path
       inkscape:connector-curvature="0"
       id="path4400"
       style="fill:#e5ea08;fill-opacity:1;fill-rule:nonzero;stroke:none"
       d="m 121.332,38.809 -5.457,0 -2.727,4.7262 2.727,4.7269 5.457,0 2.73,-4.7269 -2.73,-4.7262" /><path
       inkscape:connector-curvature="0"
       id="path4402"
       style="fill:#e5ea08;fill-opacity:1;fill-rule:nonzero;stroke:none"
       d="m 107.691,24.6328 -2.73,4.7223 2.73,4.7269 5.457,0 2.727,-4.7269 -2.73,-4.7223 -5.454,0" /><path
       inkscape:connector-curvature="0"
       id="path4404"
       style="fill:#e5ea08;fill-opacity:1;fill-rule:nonzero;stroke:none"
       d="m 137.703,38.809 -5.457,0 -2.726,4.7262 1.73,2.9957 0.996,1.7312 5.457,0 2.731,-4.7269 -2.731,-4.7262" /><path
       inkscape:connector-curvature="0"
       id="path4406"
       style="fill:#e5ea08;fill-opacity:1;fill-rule:nonzero;stroke:none"
       d="m 121.332,10.4531 -5.457,0 -2.727,4.7231 2.727,4.7297 5.457,0 2.73,-4.7297 -2.73,-4.7231" /><path
       inkscape:connector-curvature="0"
       id="path4408"
       style="fill:#e5ea08;fill-opacity:1;fill-rule:nonzero;stroke:none"
       d="m 140.434,24.6328 -2.731,4.7262 2.731,4.723 5.457,0 2.726,-4.723 -2.726,-4.7262 -5.457,0" /><path
       inkscape:connector-curvature="0"
       id="path4410"
       style="fill:#e5ea08;fill-opacity:1;fill-rule:nonzero;stroke:none"
       d="m 137.703,10.4531 -5.457,0 -2.726,4.7231 2.726,4.7297 5.457,0 2.731,-4.7297 -2.731,-4.7231" /></g></svg>